<svg width="15" height="18" viewBox="0 0 15 18" fill="none" xmlns="http://www.w3.org/2000/svg">
<path d="M7.49998 0.722168C5.60972 0.724418 3.79754 1.47637 2.46099 2.81305C1.12444 4.14973 0.372668 5.96199 0.370605 7.85225C0.370605 11.588 6.15486 16.5853 6.81644 17.1435L7.5014 17.7222L8.18636 17.1435C8.84652 16.5853 14.6322 11.588 14.6322 7.85225C14.6301 5.9615 13.878 4.14881 12.5408 2.81205C11.2036 1.47528 9.39073 0.723668 7.49998 0.722168ZM7.49998 14.9193C5.32894 12.9416 2.49419 9.72863 2.49419 7.85225C2.49419 6.52463 3.02158 5.25139 3.96035 4.31262C4.89912 3.37385 6.17236 2.84646 7.49998 2.84646C8.8276 2.84646 10.1008 3.37385 11.0396 4.31262C11.9784 5.25139 12.5058 6.52463 12.5058 7.85225C12.5058 9.72508 9.67031 12.9395 7.49998 14.9193Z" fill="#5E33D6"/>
<path d="M7.49983 9.91518C8.67226 9.91518 9.6227 8.96474 9.6227 7.79231C9.6227 6.61988 8.67226 5.66943 7.49983 5.66943C6.3274 5.66943 5.37695 6.61988 5.37695 7.79231C5.37695 8.96474 6.3274 9.91518 7.49983 9.91518Z" fill="#5E33D6"/>
</svg>
