<svg width="58" height="58" viewBox="0 0 58 58" fill="none" xmlns="http://www.w3.org/2000/svg">
<g clip-path="url(#clip0_83_3405)">
<path d="M28.7838 57.5675C44.6806 57.5675 57.5675 44.6806 57.5675 28.7838C57.5675 12.8869 44.6806 0 28.7838 0C12.8869 0 0 12.8869 0 28.7838C0 44.6806 12.8869 57.5675 28.7838 57.5675Z" fill="#1769FF"/>
<path d="M20.3353 15.7402C21.5764 15.7402 22.7093 15.8508 23.734 16.0695C24.7588 16.2883 25.6338 16.6475 26.3637 17.1472C27.0937 17.6469 27.6602 18.31 28.0631 19.139C28.4661 19.968 28.6664 20.9904 28.6664 22.2085C28.6664 23.5234 28.3671 24.6194 27.7707 25.4968C27.1743 26.3741 26.29 27.0925 25.1226 27.6521C26.7299 28.1149 27.9296 28.9255 28.7217 30.0815C29.5138 31.2374 29.9099 32.6328 29.9099 34.2655C29.9099 35.5803 29.6543 36.7201 29.1431 37.6827C28.6319 38.6452 27.9434 39.4304 27.0776 40.0383C26.2118 40.6485 25.2262 41.0976 24.1186 41.39C23.0041 41.6825 21.855 41.8298 20.7037 41.8275H8.05957V15.7402H20.3353ZM19.6053 26.2981C20.6277 26.2981 21.4682 26.054 22.1268 25.5682C22.7853 25.08 23.1146 24.2902 23.1123 23.1941C23.1123 22.5862 23.0018 22.0865 22.783 21.6973C22.5643 21.3082 22.2718 21.0019 21.9057 20.7831C21.5396 20.5644 21.1205 20.4124 20.6461 20.3272C20.158 20.242 19.6629 20.1983 19.1655 20.2006H13.7979V26.3027L19.6053 26.2981ZM19.9346 37.3672C20.4757 37.3695 21.0146 37.3142 21.5419 37.2037C22.0531 37.0932 22.5044 36.9113 22.8936 36.6557C23.2827 36.4001 23.5936 36.0524 23.8262 35.6148C24.0564 35.1773 24.1739 34.6155 24.1739 33.9339C24.1739 32.596 23.7962 31.6381 23.0409 31.067C22.2857 30.4936 21.2863 30.2081 20.0451 30.2081H13.7979V37.3695L19.9346 37.3672ZM37.1266 36.8192C37.9049 37.5744 39.0263 37.9521 40.4885 37.9521C41.5362 37.9521 42.4366 37.6896 43.1919 37.1669C43.9472 36.6441 44.41 36.0892 44.5804 35.5043H49.1467C48.4167 37.7702 47.2953 39.389 45.7847 40.363C44.2741 41.337 42.4481 41.8252 40.3043 41.8252C38.819 41.8252 37.4789 41.588 36.2861 41.1137C35.0933 40.6393 34.0824 39.9623 33.2534 39.085C32.4244 38.2077 31.7843 37.1623 31.3353 35.9441C30.8862 34.726 30.6606 33.3858 30.6606 31.9259C30.6606 30.5144 30.8908 29.1995 31.3537 27.9814C31.8165 26.7633 32.4751 25.7109 33.3271 24.8221C34.1791 23.9332 35.1969 23.2332 36.3782 22.722C37.5595 22.2108 38.8697 21.9552 40.3066 21.9552C41.9139 21.9552 43.3139 22.2661 44.509 22.8878C45.7018 23.5095 46.6828 24.3431 47.4496 25.3909C48.2164 26.4386 48.7713 27.6314 49.1121 28.9715C49.4529 30.3117 49.575 31.7118 49.4782 33.174H35.8509C35.9222 34.848 36.3482 36.0662 37.1266 36.8192ZM42.9915 26.883C42.3698 26.2014 41.4257 25.8606 40.1592 25.8606C39.3302 25.8606 38.6417 26.0011 38.096 26.2797C37.548 26.5606 37.1104 26.906 36.7812 27.3205C36.4519 27.735 36.2216 28.1725 36.088 28.6354C35.9545 29.0982 35.8739 29.5127 35.8509 29.8765H44.2903C44.0439 28.564 43.611 27.5646 42.9915 26.883ZM34.962 17.0643H45.5061V19.9887H34.962V17.0643Z" fill="white"/>
</g>
<defs>
<clipPath id="clip0_83_3405">
<rect width="57.5675" height="57.5675" fill="white"/>
</clipPath>
</defs>
</svg>
