<svg width="18" height="18" viewBox="0 0 18 18" fill="none" xmlns="http://www.w3.org/2000/svg">
<path d="M8.51881 0.645996C6.26522 0.648434 4.10462 1.54475 2.51109 3.13828C0.917561 4.73181 0.0212448 6.8924 0.0188073 9.146C-0.0704427 15.9269 7.9231 20.0749 13.4063 16.0997C13.4851 16.0473 13.5526 15.9796 13.6048 15.9007C13.657 15.8218 13.6929 15.7332 13.7103 15.6401C13.7277 15.5471 13.7262 15.4515 13.7061 15.3591C13.6859 15.2666 13.6475 15.1791 13.5929 15.1018C13.5384 15.0244 13.4689 14.9588 13.3886 14.9088C13.3083 14.8587 13.2187 14.8253 13.1253 14.8104C13.0318 14.7955 12.9363 14.7995 12.8444 14.8222C12.7526 14.8448 12.6661 14.8857 12.5903 14.9423C8.02297 18.2523 1.36464 14.7971 1.43547 9.146C1.82435 -0.250754 15.2147 -0.248629 15.6021 9.146V10.5627C15.6021 10.9384 15.4529 11.2987 15.1872 11.5644C14.9215 11.8301 14.5612 11.9793 14.1855 11.9793C13.8098 11.9793 13.4494 11.8301 13.1837 11.5644C12.9181 11.2987 12.7688 10.9384 12.7688 10.5627V9.146C12.5903 3.52962 4.4466 3.53033 4.26881 9.146C4.27705 10.0073 4.54609 10.8459 5.04045 11.5513C5.53482 12.2567 6.23132 12.7957 7.03814 13.0974C7.84497 13.399 8.72426 13.4491 9.56013 13.241C10.396 13.033 11.1492 12.5765 11.7205 11.9319C12.0278 12.4742 12.5053 12.9 13.0791 13.1435C13.6529 13.3869 14.291 13.4343 14.8945 13.2783C15.498 13.1224 16.0332 12.7718 16.4173 12.2808C16.8013 11.7899 17.0128 11.186 17.0188 10.5627V9.146C17.0164 6.8924 16.1201 4.73181 14.5265 3.13828C12.933 1.54475 10.7724 0.648434 8.51881 0.645996ZM8.51881 11.9793C7.76736 11.9793 7.04669 11.6808 6.51534 11.1495C5.98399 10.6181 5.68547 9.89744 5.68547 9.146C5.68547 8.39455 5.98399 7.67388 6.51534 7.14253C7.04669 6.61117 7.76736 6.31266 8.51881 6.31266C9.27026 6.31266 9.99092 6.61117 10.5223 7.14253C11.0536 7.67388 11.3521 8.39455 11.3521 9.146C11.3521 9.89744 11.0536 10.6181 10.5223 11.1495C9.99092 11.6808 9.27026 11.9793 8.51881 11.9793Z" fill="#5E33D6"/>
</svg>
