<svg width="493" height="418" viewBox="0 0 493 418" fill="none" xmlns="http://www.w3.org/2000/svg">
<rect width="492.21" height="417.852" rx="30" fill="#010314"/>
<path d="M386.507 74.9103C384.358 75.1539 381.737 76.1998 379.789 77.5752C379.273 77.9477 376.495 80.5696 373.616 83.4208C370.737 86.2576 351.472 105.256 330.79 125.629C308.246 147.851 292.92 163.066 292.505 163.625C288.652 168.912 288.766 176.205 292.762 181.334C293.106 181.778 300.468 189.199 309.119 197.825C326.45 215.132 325.519 214.287 328.484 215.39C331.936 216.694 335.975 216.608 339.427 215.161C342.062 214.072 340.945 215.103 370.923 185.804C386.22 170.832 399.197 158.052 399.727 157.393C400.901 155.974 402.133 153.567 402.563 151.905C402.72 151.275 402.906 150.115 402.978 149.326C403.164 147.306 403.164 90.1546 402.978 88.1918C402.305 81.0997 396.977 75.7126 389.801 74.896C388.426 74.7384 388.025 74.7384 386.507 74.9103Z" fill="#EFEFEF"/>
<path d="M234.998 130.773C232.735 131.088 229.899 132.248 228.223 133.523C226.906 134.526 186.658 170.244 185.813 171.147C184.28 172.809 183.106 175.001 182.447 177.408L182.046 178.841V248.758V318.676L182.433 320.065C183.98 325.682 187.89 329.45 193.705 330.882C194.55 331.097 196.756 331.126 215.777 331.169C237.247 331.226 238.564 331.198 240.555 330.696C245.311 329.478 249.206 325.839 250.825 321.111C251.613 318.805 251.584 319.865 251.584 289.147C251.584 264.146 251.613 260.693 251.799 260.034C252.085 259.074 252.63 258.429 253.145 258.429C253.804 258.429 255.165 259.217 256.597 260.449C257.342 261.094 272.983 276.611 291.33 294.964C318.071 321.67 324.918 328.447 325.763 328.991C327.725 330.281 329.945 331.069 332.394 331.37C333.168 331.456 342.693 331.499 359.508 331.47L385.433 331.427L386.822 331.04C392.064 329.593 395.759 325.954 397.349 320.681C397.707 319.492 397.736 319.206 397.736 316.741C397.75 314.392 397.707 313.962 397.421 312.945C396.991 311.44 395.874 309.177 394.972 308.002C394.585 307.486 362.96 275.393 324.674 236.666C286.403 197.939 254.807 165.903 254.463 165.459C253.203 163.84 252.401 161.748 251.928 158.826C251.742 157.679 251.67 155.788 251.584 150.186C251.484 143.624 251.455 142.922 251.183 141.876C249.536 135.472 244.022 130.988 237.433 130.715C236.588 130.672 235.499 130.701 234.998 130.773Z" fill="#EFEFEF"/>
<path d="M128.764 139.14C126.745 139.455 124.252 140.458 122.663 141.59C121.116 142.693 100.877 159.126 99.932 160.058C97.4398 162.493 95.9645 165.602 95.6064 169.17C95.4346 170.947 95.4346 192.466 95.6064 194.243C96.1794 200.06 99.8747 204.773 105.346 206.679C107.194 207.324 108.354 207.496 110.502 207.481C112.092 207.467 112.694 207.395 113.868 207.08C115.587 206.636 117.506 205.705 118.881 204.659C120.486 203.455 141.34 185.03 142.099 184.156C143.631 182.394 144.863 179.844 145.422 177.337C145.637 176.377 145.665 174.901 145.665 164.155C145.665 151.046 145.68 151.261 144.863 148.854C143.087 143.596 138.332 139.799 132.631 139.097C131.056 138.911 130.254 138.911 128.764 139.14Z" fill="#7048FF"/>
<path d="M146.897 203.914C144.806 204.386 142.686 205.346 141.139 206.521C140.638 206.908 130.239 216.02 118.022 226.78C105.819 237.526 92.4695 249.26 88.3731 252.856C84.2767 256.438 80.6816 259.661 80.3809 260.005C78.9629 261.653 77.7168 264.045 77.2155 266.051C76.7571 267.899 76.6855 269.361 76.7285 275.364L76.7858 281.281L77.1725 282.442C77.8027 284.347 78.9486 285.909 80.4954 287.026C82.1139 288.173 83.3744 288.574 86.0814 288.789C88.7598 289.004 90.5215 289.777 92.226 291.468C93.2286 292.471 94.045 293.775 94.5033 295.107C94.8041 296.024 94.8184 296.182 94.8901 307.357L94.976 318.676L95.3484 320.051C96.1075 322.831 97.3823 325.023 99.3875 326.985C101.808 329.349 104.615 330.668 108.096 331.069C109.772 331.269 149.89 331.255 151.466 331.069C155.032 330.625 158.083 329.077 160.532 326.484C162.251 324.65 163.368 322.616 164.113 319.965L164.428 318.819L164.471 267.957C164.5 223.671 164.471 216.937 164.285 215.877C163.755 212.768 162.466 210.246 160.275 208.054C158.427 206.192 156.336 204.974 153.686 204.186C152.583 203.871 152.068 203.799 150.105 203.756C148.458 203.713 147.556 203.756 146.897 203.914Z" fill="#7048FF"/>
</svg>
