<svg width="58" height="58" viewBox="0 0 58 58" fill="none" xmlns="http://www.w3.org/2000/svg">
<g clip-path="url(#clip0_83_3342)">
<path d="M28.974 57.7182C44.5191 57.7182 57.1209 44.8482 57.1209 28.9724C57.1209 13.0965 44.5191 0.22657 28.974 0.226567C13.4289 0.226565 0.827146 13.0965 0.827143 28.9724C0.827141 44.8482 13.4289 57.7182 28.974 57.7182Z" fill="white"/>
<path d="M28.9753 0.335943C13.0803 0.33594 0.190427 13.1903 0.190425 29.0494C0.190422 41.7377 8.43846 52.5004 19.8743 56.2963C21.3121 56.5615 21.8415 55.6736 21.8415 54.9149C21.8415 54.23 21.8138 51.9677 21.8022 49.5693C13.7946 51.3058 12.1048 46.1816 12.1048 46.1816C10.7964 42.8631 8.90773 41.9799 8.90773 41.9799C6.29554 40.1972 9.10422 40.2341 9.10422 40.2341C11.9938 40.4371 13.5172 43.1929 13.5172 43.1929C16.0855 47.5837 20.2511 46.3131 21.8924 45.5797C22.1513 43.7233 22.8956 42.4572 23.7209 41.74C17.3268 41.0136 10.6068 38.5507 10.6068 27.5482C10.6068 24.4141 11.7303 21.852 13.5727 19.8411C13.2745 19.1193 12.2897 16.1997 13.8524 12.2447C13.8524 12.2447 16.2704 11.4722 21.7699 15.1874C24.0654 14.5509 26.5273 14.2326 28.9753 14.2211C31.4211 14.2326 33.8853 14.5509 36.1854 15.1874C41.6803 11.4722 44.0937 12.2448 44.0937 12.2448C45.661 16.1998 44.6739 19.1216 44.3757 19.8434C46.2204 21.8544 47.3369 24.4165 47.3369 27.5505C47.3369 38.5783 40.603 41.009 34.1928 41.7193C35.2261 42.6094 36.1461 44.3575 36.1461 47.0372C36.1461 50.8792 36.1138 53.9717 36.1138 54.9172C36.1138 55.6805 36.6316 56.5776 38.0902 56.294C49.5215 52.4935 57.7579 41.7331 57.7579 29.0495C57.7579 13.1903 44.8704 0.335945 28.9753 0.335943Z" fill="#5C6BC0"/>
</g>
<defs>
<clipPath id="clip0_83_3342">
<rect width="57.5675" height="57.5675" fill="white" transform="translate(0.19043 0.189453)"/>
</clipPath>
</defs>
</svg>
