<svg width="21" height="16" viewBox="0 0 21 16" fill="none" xmlns="http://www.w3.org/2000/svg">
<path d="M19.125 9C19.6773 9 20.125 8.55228 20.125 8C20.125 7.44772 19.6773 7 19.125 7L19.125 9ZM1.16789 7.29289C0.777366 7.68342 0.777366 8.31658 1.16789 8.70711L7.53185 15.0711C7.92238 15.4616 8.55554 15.4616 8.94607 15.0711C9.33659 14.6805 9.33659 14.0474 8.94607 13.6569L3.28921 8L8.94607 2.34315C9.33659 1.95262 9.33659 1.31946 8.94607 0.928932C8.55554 0.538408 7.92238 0.538408 7.53185 0.928932L1.16789 7.29289ZM19.125 7L1.875 7L1.875 9L19.125 9L19.125 7Z" fill="white"/>
</svg>
