<svg width="20" height="16" viewBox="0 0 20 16" fill="none" xmlns="http://www.w3.org/2000/svg">
<path d="M18.25 7C18.8023 7 19.25 7.44772 19.25 8C19.25 8.55228 18.8023 9 18.25 9V7ZM0.292891 8.70711C-0.0976333 8.31658 -0.0976333 7.68342 0.292891 7.29289L6.65685 0.928931C7.04738 0.538407 7.68054 0.538407 8.07107 0.928931C8.46159 1.31946 8.46159 1.95262 8.07107 2.34315L2.41421 8L8.07107 13.6569C8.46159 14.0474 8.46159 14.6805 8.07107 15.0711C7.68054 15.4616 7.04738 15.4616 6.65685 15.0711L0.292891 8.70711ZM18.25 9H0.999998V7H18.25V9Z" fill="#010314"/>
</svg>
