<svg width="50" height="40" viewBox="0 0 50 40" fill="none" xmlns="http://www.w3.org/2000/svg">
<path d="M15.9199 16.6382C15.9199 16.0191 16.1851 15.4298 16.6485 15.0193L22.71 9.64958C24.1055 8.41329 26.3069 9.40406 26.3069 11.2685V37.0468C26.3069 38.2413 25.3386 39.2096 24.1441 39.2096H18.0826C16.8882 39.2096 15.9199 38.2413 15.9199 37.0468V16.6382Z" fill="#EFEFEF" stroke="#EFEFEF" stroke-width="0.114143"/>
<path d="M2.73943 26.5976L9.55386 20.5979C10.9877 19.3355 13.2406 20.3536 13.2406 22.264V37.0476C13.2406 38.2736 12.2467 39.2675 11.0207 39.2675H4.95926C3.73328 39.2675 2.73943 38.2736 2.73943 37.0476V34.2452C2.73943 33.4887 2.12619 32.8755 1.36971 32.8755C0.613242 32.8755 0 32.2622 0 31.5057V30.0019C0 29.3618 0.276325 28.7528 0.75806 28.3313L2.73943 26.5976Z" fill="#7048FF"/>
<path d="M32.7533 13.7465C31.8754 14.6114 31.8701 16.026 32.7415 16.8974L37.1606 21.3165C38.0208 22.1767 39.4131 22.1843 40.2826 21.3337L48.5272 13.2681C48.9541 12.8505 49.1947 12.2785 49.1947 11.6813L49.1947 2.85139C49.1947 0.881704 46.8201 -0.112275 45.417 1.27009L32.7533 13.7465Z" fill="#EFEFEF"/>
<path d="M2.8306 15.053C2.8306 14.3826 3.13356 13.7482 3.65489 13.3267L6.78805 10.794C8.23957 9.6207 10.4031 10.6538 10.4031 12.5203L10.4031 15.6602C10.4031 16.2981 10.1287 16.9052 9.64978 17.3266L6.51662 20.0836C5.08274 21.3454 2.8306 20.3272 2.8306 18.4173L2.8306 15.053Z" fill="#7048FF"/>
<path d="M26.1121 12.3082C26.1121 14.2814 26.6054 14.4047 27.2218 15.1447M26.096 29.1527C26.0577 28.0731 26.5171 27.618 27.4512 28.5981" stroke="#EFEFEF" stroke-width="0.493295"/>
<path d="M47.7305 35.5717C49.0809 36.9376 48.1133 39.2548 46.1926 39.2549L38.7704 39.2553C38.1967 39.2553 37.6466 39.0275 37.2409 38.6218L23.5496 24.9305C23.144 24.5249 22.9162 23.9749 22.9162 23.4013L22.9159 15.735C22.9158 13.8022 25.2578 12.8399 26.6167 14.2144L47.7305 35.5717Z" fill="#EFEFEF" stroke="#EFEFEF" stroke-width="0.114143"/>
</svg>
