<svg width="15" height="16" viewBox="0 0 15 16" fill="none" xmlns="http://www.w3.org/2000/svg">
<path d="M14.3845 7.54993C14.2187 7.54993 14.0597 7.48408 13.9425 7.36687C13.8253 7.24966 13.7595 7.09069 13.7595 6.92493C13.7581 5.59925 13.2309 4.32825 12.2935 3.39086C11.3561 2.45346 10.0851 1.92625 8.75946 1.92493C8.5937 1.92493 8.43473 1.85908 8.31752 1.74187C8.20031 1.62466 8.13446 1.46569 8.13446 1.29993C8.13446 1.13417 8.20031 0.975196 8.31752 0.857986C8.43473 0.740776 8.5937 0.674928 8.75946 0.674928C10.4165 0.676748 12.0052 1.33581 13.1769 2.50752C14.3486 3.67923 15.0076 5.26788 15.0095 6.92493C15.0095 7.09069 14.9436 7.24966 14.8264 7.36687C14.7092 7.48408 14.5502 7.54993 14.3845 7.54993ZM12.5095 6.92493C12.5095 5.93037 12.1144 4.97654 11.4111 4.27328C10.7079 3.57002 9.75402 3.17493 8.75946 3.17493C8.5937 3.17493 8.43473 3.24078 8.31752 3.35799C8.20031 3.4752 8.13446 3.63417 8.13446 3.79993C8.13446 3.96569 8.20031 4.12466 8.31752 4.24187C8.43473 4.35908 8.5937 4.42493 8.75946 4.42493C9.4225 4.42493 10.0584 4.68832 10.5272 5.15716C10.9961 5.626 11.2595 6.26189 11.2595 6.92493C11.2595 7.09069 11.3253 7.24966 11.4425 7.36687C11.5597 7.48408 11.7187 7.54993 11.8845 7.54993C12.0502 7.54993 12.2092 7.48408 12.3264 7.36687C12.4436 7.24966 12.5095 7.09069 12.5095 6.92493ZM13.8738 14.5274L14.4426 13.8718C14.8046 13.5086 15.0079 13.0168 15.0079 12.504C15.0079 11.9912 14.8046 11.4994 14.4426 11.1362C14.4232 11.1168 12.9195 9.95993 12.9195 9.95993C12.5586 9.61638 12.0792 9.42509 11.5809 9.42579C11.0826 9.42649 10.6038 9.61913 10.2438 9.96368L9.05259 10.9674C8.0802 10.565 7.19689 9.97441 6.45339 9.22963C5.70989 8.48484 5.12085 7.60051 4.72009 6.62743L5.72009 5.43993C6.06491 5.08004 6.25777 4.6011 6.25859 4.10268C6.2594 3.60426 6.06811 3.1247 5.72446 2.76368C5.72446 2.76368 4.56634 1.2618 4.54696 1.24243C4.19037 0.883521 3.70689 0.679317 3.20098 0.673937C2.69507 0.668558 2.20736 0.862434 1.84321 1.21368L1.12446 1.83868C-3.12179 6.76493 6.02196 15.8381 11.1107 15.6749C11.6246 15.6779 12.1338 15.5779 12.6084 15.3808C13.083 15.1837 13.5133 14.8936 13.8738 14.5274Z" fill="#5E33D6"/>
</svg>
