<svg width="20" height="16" viewBox="0 0 20 16" fill="none" xmlns="http://www.w3.org/2000/svg">
<path d="M1 9C0.447715 9 -1.67492e-07 8.55228 -1.19209e-07 8C-7.0927e-08 7.44772 0.447715 7 1 7L1 9ZM18.9571 7.29289C19.3476 7.68342 19.3476 8.31658 18.9571 8.70711L12.5931 15.0711C12.2026 15.4616 11.5695 15.4616 11.1789 15.0711C10.7884 14.6805 10.7884 14.0474 11.1789 13.6569L16.8358 8L11.1789 2.34315C10.7884 1.95262 10.7884 1.31946 11.1789 0.928932C11.5695 0.538408 12.2026 0.538408 12.5931 0.928932L18.9571 7.29289ZM1 7L18.25 7L18.25 9L1 9L1 7Z" fill="#010314"/>
</svg>
