<svg width="21" height="16" viewBox="0 0 21 16" fill="none" xmlns="http://www.w3.org/2000/svg">
<path d="M1.875 9C1.32272 9 0.875 8.55228 0.875 8C0.875 7.44772 1.32272 7 1.875 7L1.875 9ZM19.8321 7.29289C20.2226 7.68342 20.2226 8.31658 19.8321 8.70711L13.4681 15.0711C13.0776 15.4616 12.4445 15.4616 12.0539 15.0711C11.6634 14.6805 11.6634 14.0474 12.0539 13.6569L17.7108 8L12.0539 2.34315C11.6634 1.95262 11.6634 1.31946 12.0539 0.928932C12.4445 0.538408 13.0776 0.538408 13.4681 0.928932L19.8321 7.29289ZM1.875 7L19.125 7L19.125 9L1.875 9L1.875 7Z" fill="white"/>
</svg>
