<svg width="18" height="18" viewBox="0 0 18 18" fill="none" xmlns="http://www.w3.org/2000/svg">
<path d="M8.10326 1.31699C8.47008 0.57374 9.52992 0.57374 9.89674 1.31699L11.8532 5.28122C11.9989 5.57636 12.2804 5.78093 12.6061 5.82826L16.9809 6.46395C17.8012 6.58314 18.1287 7.59111 17.5351 8.16965L14.3695 11.2554C14.1338 11.4851 14.0263 11.8161 14.0819 12.1405L14.8292 16.4976C14.9693 17.3145 14.1119 17.9375 13.3783 17.5518L9.46534 15.4946C9.17402 15.3415 8.82598 15.3415 8.53466 15.4946L4.62173 17.5518C3.8881 17.9375 3.03067 17.3145 3.17078 16.4976L3.91808 12.1405C3.97372 11.8161 3.86617 11.4851 3.63048 11.2554L0.464856 8.16965C-0.128661 7.59111 0.198849 6.58314 1.01907 6.46395L5.39386 5.82826C5.71957 5.78093 6.00114 5.57636 6.1468 5.28122L8.10326 1.31699Z" fill="white"/>
</svg>
