<svg width="58" height="58" viewBox="0 0 58 58" fill="none" xmlns="http://www.w3.org/2000/svg">
<path fill-rule="evenodd" clip-rule="evenodd" d="M28.7857 0C12.8899 0 0.00195312 12.8879 0.00195312 28.7838C0.00195312 44.6796 12.8899 57.5675 28.7857 57.5675C44.6815 57.5675 57.5695 44.6796 57.5695 28.7838C57.5695 12.8879 44.6815 0 28.7857 0ZM42.127 19.5753C41.6952 24.1256 39.8195 35.1713 38.8672 40.2685C38.4642 42.4272 37.6679 43.1492 36.9003 43.2188C35.2285 43.3723 33.9596 42.113 32.3405 41.0528C29.8075 39.393 28.3755 38.3591 25.9169 36.7377C23.0745 34.8643 24.9167 33.8353 26.5358 32.1538C26.9603 31.7125 34.3242 25.0131 34.4681 24.4062C34.4849 24.3295 34.5041 24.0464 34.3338 23.8977C34.1635 23.749 33.9164 23.7994 33.7389 23.8401C33.4846 23.8977 29.4381 26.5722 21.597 31.8636C20.448 32.6528 19.407 33.0365 18.4739 33.0174C17.4473 32.9958 15.4708 32.4369 14.0005 31.9572C12.1991 31.3719 10.7647 31.0601 10.8894 30.067C10.9542 29.5489 11.6666 29.0188 13.029 28.4767C21.4195 24.8212 27.0155 22.4105 29.8147 21.2448C37.8094 17.9203 39.4693 17.3422 40.5535 17.323C41.9111 17.3038 42.2373 18.424 42.127 19.5753Z" fill="#31A8E0"/>
<path d="M42.127 19.5753C41.6952 24.1256 39.8195 35.1713 38.8672 40.2685C38.4642 42.4272 37.6679 43.1492 36.9003 43.2188C35.2285 43.3723 33.9596 42.113 32.3405 41.0528C29.8075 39.393 28.3755 38.3591 25.9169 36.7377C23.0745 34.8643 24.9167 33.8353 26.5358 32.1538C26.9603 31.7125 34.3242 25.0131 34.4681 24.4062C34.4849 24.3295 34.5041 24.0464 34.3338 23.8977C34.1635 23.749 33.9164 23.7994 33.7389 23.8401C33.4846 23.8977 29.4381 26.5722 21.597 31.8636C20.448 32.6528 19.407 33.0365 18.4739 33.0174C17.4473 32.9958 15.4708 32.4369 14.0005 31.9572C12.1991 31.3719 10.7647 31.0601 10.8894 30.067C10.9542 29.5489 11.6666 29.0188 13.029 28.4767C21.4195 24.8212 27.0155 22.4105 29.8147 21.2448C37.8094 17.9203 39.4693 17.3422 40.5535 17.323C41.9111 17.3038 42.2373 18.424 42.127 19.5753Z" fill="white"/>
</svg>
