<svg width="24" height="24" viewBox="0 0 24 24" fill="none" xmlns="http://www.w3.org/2000/svg">
<rect x="0.015625" y="0.109863" width="23" height="23" rx="3" fill="#0077FF"/>
<path d="M12.4899 16.5384C7.5505 16.5384 4.73311 13.0849 4.61572 7.33838H7.08996C7.17123 11.5562 8.99531 13.3428 10.4401 13.7112V7.33838H12.7699V10.976C14.1966 10.8195 15.6956 9.1618 16.2013 7.33838H18.5311C18.3405 8.28406 17.9607 9.17947 17.4153 9.96859C16.8699 10.7577 16.1707 11.4236 15.3615 11.9246C16.2648 12.3823 17.0627 13.0302 17.7024 13.8255C18.3421 14.6208 18.8092 15.5455 19.0729 16.5384H16.5083C16.2717 15.676 15.7907 14.9039 15.1257 14.3191C14.4606 13.7342 13.6411 13.3626 12.7699 13.2507V16.5384H12.4899Z" fill="white"/>
</svg>
