<svg width="50" height="50" viewBox="0 0 50 50" fill="none" xmlns="http://www.w3.org/2000/svg">
<g clip-path="url(#clip0_83_3355)">
<path d="M46.3901 3.49684C42.8894 -0.00390625 37.2537 -0.00390625 25.9844 -0.00390625H23.9055C12.6362 -0.00390625 7.00051 -0.00390625 3.49977 3.49684C-0.000976562 6.99758 -0.000976562 12.6333 -0.000976562 23.9026V25.9814C-0.000976562 37.2507 -0.000976562 42.8844 3.49977 46.3872C7.00051 49.89 12.6362 49.8879 23.9055 49.8879H25.9844C37.2537 49.8879 42.8873 49.8879 46.3901 46.3872C49.8909 42.8864 49.8909 37.2507 49.8909 25.9814V23.9026C49.8909 12.6333 49.8909 6.99758 46.3901 3.49684ZM40.5424 35.3361H36.9044C35.5179 35.3361 35.1104 34.2302 32.6428 31.7626C30.4829 29.6817 29.5579 29.4115 29.0194 29.4115C28.2856 29.4115 28.0673 29.6194 28.0673 30.6588V33.9205C28.0673 34.8144 27.7825 35.3361 25.4688 35.3361C21.6147 35.3361 17.378 32.9954 14.37 28.6797C9.8589 22.358 8.62615 17.5788 8.62615 16.6163C8.62615 16.0758 8.83404 15.5873 9.87345 15.5873H13.5135C14.4427 15.5873 14.792 15.9947 15.1412 17.0009C16.9207 22.1834 19.9225 26.7132 21.1552 26.7132C21.6167 26.7132 21.8288 26.4991 21.8288 25.3266V19.9695C21.6937 17.504 20.3819 17.3002 20.3819 16.423C20.3819 16.0176 20.7291 15.5873 21.307 15.5873H27.0258C27.7971 15.5873 28.0653 15.9989 28.0653 16.924V24.1313C28.0653 24.9004 28.4 25.1707 28.6307 25.1707C29.0943 25.1707 29.4789 24.9004 30.327 24.0523C32.9484 21.1232 34.7986 16.6142 34.7986 16.6142C35.0314 16.0737 35.4555 15.5852 36.3826 15.5852H40.0206C41.1203 15.5852 41.3531 16.1507 41.1203 16.9219C40.6567 19.0423 36.2247 25.285 36.2247 25.285C35.838 25.9024 35.6842 26.2101 36.2247 26.9044C36.6113 27.4449 37.8815 28.5238 38.7296 29.5258C40.2929 31.2845 41.4716 32.7667 41.8001 33.7895C42.1036 34.8164 41.5818 35.3361 40.5424 35.3361Z" fill="#2090FE"/>
<path d="M40.5424 35.3361H36.9044C35.5179 35.3361 35.1104 34.2302 32.6428 31.7626C30.4829 29.6817 29.5579 29.4115 29.0194 29.4115C28.2856 29.4115 28.0673 29.6194 28.0673 30.6588V33.9205C28.0673 34.8144 27.7825 35.3361 25.4688 35.3361C21.6147 35.3361 17.378 32.9954 14.37 28.6797C9.8589 22.358 8.62615 17.5788 8.62615 16.6163C8.62615 16.0758 8.83404 15.5873 9.87345 15.5873H13.5135C14.4427 15.5873 14.792 15.9947 15.1412 17.0009C16.9207 22.1834 19.9225 26.7132 21.1552 26.7132C21.6167 26.7132 21.8288 26.4991 21.8288 25.3266V19.9695C21.6937 17.504 20.3819 17.3002 20.3819 16.423C20.3819 16.0176 20.7291 15.5873 21.307 15.5873H27.0258C27.7971 15.5873 28.0653 15.9989 28.0653 16.924V24.1313C28.0653 24.9004 28.4 25.1707 28.6307 25.1707C29.0943 25.1707 29.4789 24.9004 30.327 24.0523C32.9484 21.1232 34.7986 16.6142 34.7986 16.6142C35.0314 16.0737 35.4555 15.5852 36.3826 15.5852H40.0206C41.1203 15.5852 41.3531 16.1507 41.1203 16.9219C40.6567 19.0423 36.2247 25.285 36.2247 25.285C35.838 25.9024 35.6842 26.2101 36.2247 26.9044C36.6113 27.4449 37.8815 28.5238 38.7296 29.5258C40.2929 31.2845 41.4716 32.7667 41.8001 33.7895C42.1036 34.8164 41.5818 35.3361 40.5424 35.3361Z" fill="white"/>
</g>
<defs>
<clipPath id="clip0_83_3355">
<rect width="49.8918" height="49.8918" fill="white"/>
</clipPath>
</defs>
</svg>
