<svg width="31" height="30" viewBox="0 0 31 30" fill="none" xmlns="http://www.w3.org/2000/svg">
<g clip-path="url(#clip0_0_390)">
<path d="M0.5 7C0.5 3.13401 3.63401 0 7.5 0H33.5C37.366 0 40.5 3.13401 40.5 7V33C40.5 36.866 37.366 40 33.5 40H7.5C3.63401 40 0.5 36.866 0.5 33V7Z" fill="#0F9AEF"/>
<path fill-rule="evenodd" clip-rule="evenodd" d="M26.1106 10.3125C22.8548 10.3125 19.8218 11.2568 17.2636 12.8806C15.7488 13.8421 14.4009 15.0411 13.2745 16.4283C11.9017 15.4063 10.3183 14.6518 8.60235 14.236C7.61896 13.9976 6.59275 13.8682 5.53595 13.8682C5.10195 13.8682 4.67308 13.8895 4.25 13.9312C5.7975 14.0834 7.26333 14.5104 8.60235 15.1577C9.97824 15.823 11.2181 16.723 12.2699 17.8072C12.8302 18.3846 13.3365 19.0141 13.7819 19.6875C14.0948 19.0359 14.4481 18.4076 14.8408 17.8068C16.0568 15.946 17.6369 14.3443 19.4832 13.1059C21.7785 11.5663 24.4811 10.5859 27.3964 10.3617C26.9722 10.3292 26.5433 10.3125 26.1106 10.3125Z" fill="white"/>
</g>
<defs>
<clipPath id="clip0_0_390">
<rect x="0.5" width="30" height="30" rx="8" fill="white"/>
</clipPath>
</defs>
</svg>
