<svg width="58" height="58" viewBox="0 0 58 58" fill="none" xmlns="http://www.w3.org/2000/svg">
<rect width="57" height="57" rx="28.5" fill="#48C95F"/>
<path d="M39.7957 17.1893C36.9805 14.3838 33.2268 12.8252 29.2646 12.8252C21.0274 12.8252 14.3543 19.4752 14.3543 27.6838C14.3543 30.2814 15.0841 32.8791 16.3354 35.0611L14.25 42.7502L22.1744 40.6721C24.364 41.815 26.7622 42.4385 29.2646 42.4385C37.5018 42.4385 44.175 35.7885 44.175 27.5799C44.0707 23.7354 42.611 19.9947 39.7957 17.1893ZM36.4591 32.983C36.1463 33.8143 34.6866 34.6455 33.9567 34.7494C33.3311 34.8533 32.497 34.8533 31.6628 34.6455C31.1415 34.4377 30.4116 34.2299 29.5774 33.8143C25.8238 32.2557 23.4256 28.515 23.2171 28.2033C23.0085 27.9955 21.6531 26.2291 21.6531 24.3588C21.6531 22.4885 22.5915 21.6572 22.9043 21.2416C23.2171 20.826 23.6341 20.826 23.947 20.826C24.1555 20.826 24.4683 20.826 24.6768 20.826C24.8854 20.826 25.1982 20.7221 25.511 21.4494C25.8238 22.1768 26.5537 24.0471 26.6579 24.151C26.7622 24.3588 26.7622 24.5666 26.6579 24.7744C26.5537 24.9822 26.4494 25.19 26.2408 25.3978C26.0323 25.6057 25.8238 25.9174 25.7195 26.0213C25.511 26.2291 25.3024 26.4369 25.511 26.7486C25.7195 27.1643 26.4494 28.3072 27.5963 29.3463C29.0561 30.5932 30.203 31.0088 30.6201 31.2166C31.0372 31.4244 31.2457 31.3205 31.4543 31.1127C31.6628 30.9049 32.3927 30.0736 32.6012 29.658C32.8098 29.2424 33.1226 29.3463 33.4354 29.4502C33.7482 29.5541 35.625 30.4893 35.9378 30.6971C36.3549 30.9049 36.5634 31.0088 36.6677 31.1127C36.7719 31.4244 36.7719 32.1518 36.4591 32.983Z" fill="white"/>
</svg>
