<svg width="26" height="26" viewBox="0 0 26 26" fill="none" xmlns="http://www.w3.org/2000/svg">
<rect width="26" height="26" rx="4" fill="#48C95F"/>
<path d="M19.3415 6.45001C17.761 4.875 15.6537 4 13.4293 4C8.80489 4 5.05854 7.73334 5.05854 12.3417C5.05854 13.8 5.46829 15.2584 6.17074 16.4834L5 20.8L9.44879 19.6334C10.6781 20.275 12.0244 20.625 13.4293 20.625C18.0537 20.625 21.8 16.8917 21.8 12.2834C21.7415 10.125 20.922 8.02501 19.3415 6.45001ZM17.4683 15.3167C17.2927 15.7834 16.4732 16.25 16.0634 16.3084C15.7122 16.3667 15.2439 16.3667 14.7756 16.25C14.483 16.1334 14.0732 16.0167 13.6049 15.7834C11.4976 14.9084 10.1512 12.8084 10.0342 12.6334C9.91709 12.5167 9.15611 11.525 9.15611 10.475C9.15611 9.42501 9.68294 8.95835 9.85855 8.72501C10.0342 8.49168 10.2683 8.49168 10.4439 8.49168C10.561 8.49168 10.7366 8.49168 10.8537 8.49168C10.9707 8.49168 11.1464 8.43335 11.322 8.84168C11.4976 9.25001 11.9073 10.3 11.9659 10.3584C12.0244 10.475 12.0244 10.5917 11.9659 10.7084C11.9073 10.825 11.8488 10.9417 11.7317 11.0584C11.6147 11.175 11.4976 11.35 11.439 11.4084C11.322 11.525 11.2049 11.6417 11.322 11.8167C11.439 12.05 11.8488 12.6917 12.4927 13.275C13.3122 13.975 13.9561 14.2084 14.1903 14.325C14.4244 14.4417 14.5415 14.3834 14.6586 14.2667C14.7756 14.15 15.1854 13.6834 15.3025 13.45C15.4195 13.2167 15.5952 13.275 15.7708 13.3334C15.9464 13.3917 17 13.9167 17.1756 14.0334C17.4098 14.15 17.5269 14.2084 17.5854 14.2667C17.6439 14.4417 17.6439 14.85 17.4683 15.3167Z" fill="white"/>
</svg>
